<svg width="17" height="18" viewBox="0 0 17 18" fill="none" xmlns="http://www.w3.org/2000/svg">
<path fill-rule="evenodd" clip-rule="evenodd" d="M5.45437 2.29367H11.7114C13.9915 2.29367 15.2926 3.58129 15.2926 5.86815V12.1319C15.2926 14.4053 13.9983 15.7064 11.7181 15.7064H5.45437C3.1675 15.7064 1.87988 14.4053 1.87988 12.1319V5.86815C1.87988 3.58129 3.1675 2.29367 5.45437 2.29367ZM9.13615 9.55666H11.0407C11.3492 9.54995 11.5974 9.30182 11.5974 8.99332C11.5974 8.68483 11.3492 8.4367 11.0407 8.4367H9.13615V6.54551C9.13615 6.23701 8.88801 5.98888 8.57952 5.98888C8.27103 5.98888 8.02289 6.23701 8.02289 6.54551V8.4367H6.125C5.97746 8.4367 5.83662 8.49705 5.72932 8.59765C5.62873 8.70495 5.56837 8.84511 5.56837 8.99332C5.56837 9.30182 5.8165 9.54995 6.125 9.55666H8.02289V11.4546C8.02289 11.763 8.27103 12.0112 8.57952 12.0112C8.88801 12.0112 9.13615 11.763 9.13615 11.4546V9.55666Z" fill="#1847EB"/>
</svg>
