<svg width="18" height="17" viewBox="0 0 18 17" fill="none" xmlns="http://www.w3.org/2000/svg">
<path fill-rule="evenodd" clip-rule="evenodd" d="M2.24246 3.54476C2.4797 3.17742 3.78764 1.84394 4.71967 1.88419C4.99852 1.90648 5.245 2.06319 5.44528 2.24578H5.44605C5.90513 2.66559 7.22231 4.24996 7.29626 4.58351C7.47881 5.40158 6.43354 5.87315 6.75321 6.69768C7.56816 8.55881 8.97238 9.86929 10.9674 10.6291C11.8501 10.9282 12.3554 9.9534 13.232 10.1231C13.5894 10.1928 15.2879 11.4213 15.737 11.8505V11.8505C15.9318 12.0367 16.1013 12.2674 16.1244 12.5276C16.1591 13.4442 14.6416 14.6813 14.3458 14.8395C13.648 15.306 12.7375 15.2974 11.6275 14.8158C8.53024 13.6131 3.58043 9.0807 2.26788 6.0809C1.76566 5.05077 1.73176 4.19533 2.24246 3.54476Z" stroke="#200E32" stroke-width="1.5" stroke-linecap="round" stroke-linejoin="round"/>
<path d="M10.9238 2.05835C13.7003 2.34605 15.8926 4.39005 16.2046 6.98075" stroke="#200E32" stroke-width="1.5" stroke-linecap="round" stroke-linejoin="round"/>
<path d="M10.9238 4.53845C12.2513 4.77995 13.2886 5.74805 13.5473 6.98705" stroke="#200E32" stroke-width="1.5" stroke-linecap="round" stroke-linejoin="round"/>
</svg>
