<svg width="24" height="26" viewBox="0 0 24 26" fill="none" xmlns="http://www.w3.org/2000/svg">
<path fill-rule="evenodd" clip-rule="evenodd" d="M14.0545 16.3899C14.3416 16.0911 14.3416 15.6068 14.0545 15.3079L12.8465 14.0507L14.0545 12.7934C14.3416 12.4946 14.3416 12.0102 14.0545 11.7114C13.7673 11.4022 13.2921 11.4022 13.005 11.7114L11.797 12.9686L10.5891 11.7114C10.302 11.4022 9.83663 11.4022 9.5495 11.7114C9.26238 12.0102 9.26238 12.4946 9.5495 12.7934L10.7574 14.0507L9.5495 15.3079C9.26238 15.6068 9.26238 16.0911 9.5495 16.3899C9.68812 16.5445 9.87624 16.6167 10.0644 16.6167C10.2525 16.6167 10.4505 16.5445 10.5891 16.3899L11.797 15.1327L13.005 16.3899C13.1535 16.5445 13.3416 16.6167 13.5297 16.6167C13.7178 16.6167 13.9059 16.5445 14.0545 16.3899ZM19.3354 9.96523C19.5686 9.96247 19.8209 9.95949 20.0446 9.95949C20.302 9.95949 20.5 10.1656 20.5 10.4232V18.7086C20.5 21.2643 18.5099 23.3357 16.0446 23.3357H8.17327C5.58911 23.3357 3.5 21.1613 3.5 18.4819V7.37288C3.5 4.81718 5.5 2.72522 7.96535 2.72522H13.2525C13.5 2.72522 13.7079 2.94163 13.7079 3.19926V6.51754C13.7079 8.4034 15.203 9.94918 17.0149 9.95949C17.4333 9.95949 17.8077 9.96276 18.1346 9.96562C18.3878 9.96783 18.6125 9.96979 18.8069 9.96979C18.9488 9.96979 19.135 9.96759 19.3354 9.96523ZM19.6056 8.46132C18.7918 8.46441 17.8334 8.46132 17.1433 8.4541C16.0482 8.4541 15.1462 7.5153 15.1462 6.37554V3.65908C15.1462 3.21493 15.6641 2.99439 15.9591 3.31489C16.7215 4.13916 17.8884 5.40231 18.8749 6.47006C19.2746 6.90276 19.6447 7.30338 19.9462 7.62969C20.2344 7.94193 20.0235 8.46029 19.6056 8.46132Z" fill="#AEB1B5" fill-opacity="0.75"/>
</svg>
