<svg width="16" height="18" viewBox="0 0 16 18" fill="none" xmlns="http://www.w3.org/2000/svg">
<path fill-rule="evenodd" clip-rule="evenodd" d="M5.43843 12.6583H9.92688C10.2652 12.6583 10.5457 12.375 10.5457 12.0333C10.5457 11.6916 10.2652 11.4166 9.92688 11.4166H5.43843C5.10015 11.4166 4.81962 11.6916 4.81962 12.0333C4.81962 12.375 5.10015 12.6583 5.43843 12.6583ZM8.22721 7.24996H5.43843C5.10015 7.24996 4.81962 7.53329 4.81962 7.87496C4.81962 8.21662 5.10015 8.49162 5.43843 8.49162H8.22721C8.5655 8.49162 8.84602 8.21662 8.84602 7.87496C8.84602 7.53329 8.5655 7.24996 8.22721 7.24996ZM14.1154 6.5213C14.3093 6.51906 14.5205 6.51663 14.7124 6.51663C14.9186 6.51663 15.0837 6.68329 15.0837 6.89163V13.5916C15.0837 15.6583 13.4252 17.3333 11.379 17.3333H4.81138C2.66617 17.3333 0.916992 15.575 0.916992 13.4083V4.42496C0.916992 2.35829 2.58366 0.666626 4.63811 0.666626H9.04406C9.25858 0.666626 9.42359 0.841626 9.42359 1.04996V3.73329C9.42359 5.25829 10.6695 6.50829 12.1794 6.51663C12.5321 6.51663 12.843 6.51926 13.1151 6.52157C13.3268 6.52336 13.5149 6.52496 13.681 6.52496C13.7985 6.52496 13.9507 6.5232 14.1154 6.5213ZM14.3429 5.30496C13.6647 5.30746 12.8652 5.30496 12.2901 5.29912C11.3776 5.29912 10.6259 4.53996 10.6259 3.61829V1.42162C10.6259 1.06246 11.0574 0.884125 11.3041 1.14329C11.7507 1.61226 12.3644 2.25692 12.9753 2.89862C13.5845 3.53857 14.1909 4.17558 14.6259 4.63246C14.8668 4.88496 14.6903 5.30412 14.3429 5.30496Z" fill="#1844E0"/>
</svg>
